<?xml version="1.0" standalone="no"?><!DOCTYPE svg PUBLIC "-//W3C//DTD SVG 1.1//EN" "http://www.w3.org/Graphics/SVG/1.1/DTD/svg11.dtd"><svg t="1515030756490" class="icon" style="" viewBox="0 0 1024 1024" version="1.1" xmlns="http://www.w3.org/2000/svg" p-id="6205" xmlns:xlink="http://www.w3.org/1999/xlink" width="48" height="48"><defs><style type="text/css"></style></defs><path d="M917.3 298.7H106.7c-35.3 0-64-28.7-64-64s28.7-64 64-64h810.7c35.3 0 64 28.7 64 64-0.1 35.3-28.7 64-64.1 64zM917.3 597.3H106.7c-35.3 0-64-28.7-64-64s28.7-64 64-64h810.7c35.3 0 64 28.7 64 64-0.1 35.4-28.7 64-64.1 64zM917.3 896H106.7c-35.3 0-64-28.7-64-64s28.7-64 64-64h810.7c35.3 0 64 28.7 64 64-0.1 35.3-28.7 64-64.1 64z" p-id="6206" fill="#0e6eb8"></path></svg>