<?xml version="1.0" standalone="no"?><!DOCTYPE svg PUBLIC "-//W3C//DTD SVG 1.1//EN" "http://www.w3.org/Graphics/SVG/1.1/DTD/svg11.dtd"><svg t="1515030620171" class="icon" style="" viewBox="0 0 1024 1024" version="1.1" xmlns="http://www.w3.org/2000/svg" p-id="3401" xmlns:xlink="http://www.w3.org/1999/xlink" width="48" height="48"><defs><style type="text/css"></style></defs><path d="M793.037 871.929s-49.377-138.4-7.396-278.573 129.699-395.452 36.978-463.469c-24.455-16.937-85.716-22.236-145.45-4.93-49.45 15.014-119.123 32.048-160.241 32.048s-106.747-24.406-155.309-41.908-132.802-16.148-165.171 14.794-61.311 65.7-46.841 167.636 63.503 187.852 91.216 266.246 31.21 187.482 29.581 209.548 13.926 127.086 61.633 135.59 68.806-73.811 78.887-103.542c24.925-73.466 67.942-111.553 120.8-110.935s92.818 36.607 125.728 98.61 88.822 109.826 123.262 130.658c8.677 5.918 18.443 35.424-34.513 59.168-30.569 13.313-98.241-8.654-115.867-96.146s-64.466-152.081-113.402-150.38c-23.569 1.7-40.16 4.637-69.027 66.561-16.963 36.388-30.398 185.241-106.004 192.287s-107.114-107.235-106.004-226.804-96.933-296.717-125.728-345.136c-38.185-64.221-75.808-248.889 27.117-342.67 38.581-34.687 77.678-57.615 140.521-56.7s103.441 12.768 140.521 29.581 64.319 29.581 96.146 29.581 124.739-56.7 241.595-56.7 179.717 49.281 192.287 179.965c12.447 129.475-72.037 317.746-108.473 401.837s-35.895 304.877-46.841 263.781z" p-id="3402" fill="#ffffff"></path><path d="M479.952 240.823s-27.732 147.423-157.774 162.706c129.725 12.227 162.706 160.241 162.706 160.241s35.969-151.245 155.309-157.774c-126.788-15.903-160.241-165.171-160.241-165.171zM703.649 129.888s-14.177 76.525-80.714 84.462c66.366 6.336 83.251 83.177 83.251 83.177s18.39-78.494 79.456-81.895c-64.886-8.259-81.995-85.743-81.995-85.743zM789.935 250.679s-14.62 77.654-83.177 85.692c68.386 6.434 85.766 84.411 85.766 84.411s18.957-79.654 81.871-83.103c-66.834-8.382-84.462-86.999-84.462-86.999z" p-id="3403" fill="#ffffff"></path></svg>