<?xml version="1.0" standalone="no"?><!DOCTYPE svg PUBLIC "-//W3C//DTD SVG 1.1//EN" "http://www.w3.org/Graphics/SVG/1.1/DTD/svg11.dtd"><svg t="1515030652563" class="icon" style="" viewBox="0 0 1024 1024" version="1.1" xmlns="http://www.w3.org/2000/svg" p-id="4169" xmlns:xlink="http://www.w3.org/1999/xlink" width="48" height="48"><defs><style type="text/css"></style></defs><path d="M471.04 36.352c95.232 0 192 80.896 223.744 186.368 28.16 93.184-6.144 186.88-93.184 255.488-77.312 60.928-161.28 66.048-247.808 15.36-161.792-95.232-157.184-321.024 10.24-422.912C395.776 51.2 429.568 40.96 471.04 36.352c1.536 3.072-1.024-2.56 0 0zM113.664 934.912c-1.024 0-2.048-0.512-3.072-0.512-74.24-15.872-77.824-21.504-54.784-91.648 15.36-47.616 29.696-95.232 46.592-141.824 26.624-74.752 83.968-113.152 159.744-116.736 88.576-4.608 177.664-2.048 266.752-1.024 30.72 0.512 35.84 10.752 23.04 38.912-3.072 7.168-7.168 13.824-11.264 20.48-51.712 83.456-68.608 172.544-45.056 269.312 9.728 39.936 2.048 47.104-38.4 48.128-20.48 0.512-40.96 0-61.44 0 0.512 0-195.072-15.36-282.112-25.088zM707.584 658.944l44.544-70.144h46.592l43.008 70.144h-134.144z m275.456 0h-102.4L815.104 588.8h71.68l87.552 39.936c2.048 1.536 15.36 11.776 8.704 30.208z m-19.968 51.712l-160.768 214.528 78.848-244.224h98.816c-3.584 9.728-8.192 19.456-16.896 29.696zM736.256 588.8L670.72 658.944h-102.4c-7.68-19.968 8.704-30.208 8.704-30.208v0.512l87.552-39.936c0-0.512 71.68-0.512 71.68-0.512zM588.8 711.168c-8.192-10.24-13.824-20.48-16.384-29.696H670.72l78.848 244.224-160.768-214.528z m187.392 248.832l-68.608-278.528h134.144l-65.536 278.528z" fill="#ffffff" p-id="4170"></path></svg>