<?xml version="1.0" standalone="no"?><!DOCTYPE svg PUBLIC "-//W3C//DTD SVG 1.1//EN" "http://www.w3.org/Graphics/SVG/1.1/DTD/svg11.dtd"><svg t="1515030689788" class="icon" style="" viewBox="0 0 1024 1024" version="1.1" xmlns="http://www.w3.org/2000/svg" p-id="4895" xmlns:xlink="http://www.w3.org/1999/xlink" width="48" height="48"><defs><style type="text/css"></style></defs><path d="M993.28 351.573333c-20.48-47.786667-47.786667-92.16-81.92-129.706666s-78.506667-68.266667-122.88-88.746667c-47.786667-20.48-98.986667-30.72-153.6-30.72-51.2 0-102.4 10.24-150.186667 30.72-47.786667 20.48-88.746667 51.2-122.88 88.746667s-64.853333 81.92-81.92 129.706666c-6.826667 13.653333-10.24 30.72-17.066666 47.786667H494.933333c30.72-44.373333 81.92-75.093333 139.946667-75.093333 98.986667 0 177.493333 85.333333 177.493333 187.733333s-78.506667 187.733333-177.493333 187.733333H0c0 40.96 30.72 75.093333 71.68 75.093334h266.24c6.826667 10.24 17.066667 20.48 23.893333 30.72 27.306667 30.72 61.44 54.613333 95.573334 75.093333V921.6h351.573333v-44.373333c37.546667-20.48 68.266667-44.373333 98.986667-75.093334 34.133333-37.546667 64.853333-81.92 81.92-129.706666 20.48-51.2 30.72-105.813333 30.72-160.426667s-6.826667-109.226667-27.306667-160.426667z m-133.12 395.946667c-61.44 64.853333-139.946667 98.986667-225.28 98.986667-75.093333 0-143.36-27.306667-197.973333-75.093334h197.973333c64.853333 0 129.706667-27.306667 174.08-75.093333 47.786667-47.786667 71.68-116.053333 71.68-184.32s-27.306667-136.533333-71.68-184.32c-47.786667-47.786667-109.226667-75.093333-174.08-75.093333-64.853333 0-126.293333 27.306667-174.08 75.093333H375.466667c10.24-17.066667 23.893333-34.133333 37.546666-47.786667 61.44-64.853333 139.946667-98.986667 225.28-98.986666s163.84 34.133333 225.28 98.986666 92.16 146.773333 92.16 235.52-34.133333 170.666667-95.573333 232.106667z m-119.466667-143.36H54.613333c-30.72 0-54.613333 23.893333-54.613333 54.613333h689.493333c27.306667 0 51.2-23.893333 51.2-54.613333zM563.2 512c0 40.96 30.72 75.093333 71.68 75.093333 37.546667 0 71.68-34.133333 71.68-75.093333s-30.72-75.093333-71.68-75.093333c-37.546667 0-71.68 34.133333-71.68 75.093333z m0 75.093333c0-81.92-64.853333-150.186667-139.946667-150.186666H238.933333l-197.973333 30.72c-23.893333 3.413333-40.96 23.893333-40.96 47.786666V580.266667l563.2 6.826666z" p-id="4896" fill="#ffffff"></path></svg>