<?xml version="1.0" standalone="no"?><!DOCTYPE svg PUBLIC "-//W3C//DTD SVG 1.1//EN" "http://www.w3.org/Graphics/SVG/1.1/DTD/svg11.dtd"><svg t="1515030529105" class="icon" style="" viewBox="0 0 1024 1024" version="1.1" xmlns="http://www.w3.org/2000/svg" p-id="2608" xmlns:xlink="http://www.w3.org/1999/xlink" width="48" height="48"><defs><style type="text/css"></style></defs><path d="M992.532 329.729c0 0 0-8.285 0-8.285s0-8.285 0-8.285c0 0 0 0 0 0 0 0 0 0 0 0l-149.131-223.696c0 0 0 0 0 0s-8.285-8.285-8.285-8.285c0 0 0 0-8.285 0 0 0 0 0 0 0 0 0-8.285 0-8.285 0 0 0 0 0 0 0h-596.524c0 0 0 0 0 0s-8.285 0-8.285 0c0 0 0 0 0 0 0 0 0 0-8.285 0 0 0-8.285 8.285-8.285 8.285 0 0 0 0 0 0l-157.417 215.411c0 0 0 0 0 0s0 0 0 0 0 8.285 0 8.285c0 0 0 8.285 0 8.285s0 8.285 0 8.285c0 0 0 8.285 0 8.285s0 0 0 0 0 0 0 0l439.107 588.238c0 0 8.285 0 8.285 8.285 0 0 0 0 8.285 8.285s16.57 8.285 24.854 8.285 16.57 0 24.854-8.285c0 0 0 0 8.285-8.285 0 0 8.285 0 8.285-8.285l439.107-588.238c0 0 0 0 0 0s0 0 0 0 0-8.285 0-8.285c-8.285 8.285-8.285 0-8.285 0zM354.583 371.154h306.547l-149.131 422.538-157.417-422.538zM710.842 246.879l-99.42-99.42h132.561l-33.14 99.42zM627.99 288.304h-231.982l115.99-124.276 115.99 124.276zM313.158 246.879l-33.14-99.42h132.561l-99.42 99.42zM818.547 197.169l57.996 91.135h-91.135l33.14-91.135zM205.453 197.169l33.14 91.135h-91.135l57.996-91.135zM271.734 371.154l107.706 298.261-223.696-298.261h115.99zM644.561 669.417l107.706-298.261h115.99l-223.696 298.261z" p-id="2609" fill="#ffffff"></path></svg>